<svg xmlns="http://www.w3.org/2000/svg" viewBox="0 0 1462.09 646.81"><defs><style>.cls-1,.cls-4{font-size:196px;font-family:LuloCleanW01-OneBold;font-weight:700;}.cls-1{fill:#505afc;}.cls-2{letter-spacing:-0.06em;}.cls-3{letter-spacing:-0.06em;}.cls-4,.cls-6{fill:#fff;}.cls-5{fill:#b2edfc;}</style></defs><title>Fichier 133</title><g id="Calque_2" data-name="Calque 2"><g id="Calque_1-2" data-name="Calque 1"><text class="cls-1" transform="translate(189.31 573.23) scale(0.94 1)">Minga<tspan class="cls-2" x="968.43" y="0">r</tspan><tspan class="cls-3" x="1152.66" y="0">y</tspan></text><text class="cls-4" transform="translate(189.31 573.23) scale(0.94 1)">Minga<tspan class="cls-2" x="968.43" y="0">r</tspan><tspan class="cls-3" x="1152.66" y="0">y</tspan></text><path class="cls-5" d="M614.72,96,356.09,338.92a25,25,0,0,1-34.23,0L63.93,96.69V588.16a25,25,0,0,1-50,0v-546A25.14,25.14,0,0,1,57.57,22.12L339,286.4,622.15,20.46a25.36,25.36,0,0,1,42.57,18.32"/><circle class="cls-6" cx="38.69" cy="38.69" r="38.69"/><circle class="cls-6" cx="185.18" cy="180.74" r="38.69"/><circle class="cls-6" cx="488.96" cy="180.74" r="38.69"/><circle class="cls-6" cx="38.69" cy="313.29" r="38.69"/><circle class="cls-6" cx="340.14" cy="314.19" r="38.69"/><circle class="cls-6" cx="639.26" cy="38.69" r="38.69"/></g></g></svg>